<?xml version="1.0" encoding="UTF-8"?>
<svg id="Capa_2" data-name="Capa 2" xmlns="http://www.w3.org/2000/svg" viewBox="0 0 85.84 85.87">
  <defs>
    <style>
      .cls-1 {
        fill: #00cca5;
      }

      .cls-2 {
        fill: #2b72ff;
        opacity: .7;
      }
    </style>
  </defs>
  <g id="Capa_1-2" data-name="Capa 1">
    <g>
      <path class="cls-2" d="M74.19,53.6c.76-3.23.97-6.51.91-9.83l4.77-4.66c3.79,20.89-10.43,41.43-31,45.84C20.58,91.01-4.62,66.44.72,38.02,4.64,17.15,24.68,2.8,45.78,5.77c.54.08,4.63.79,4.65,1.11-1.16,2.31-1.75,4.87-2.09,7.42-1.59-1.37-3.38-2.51-5.41-3.14v15.72h7.95l3.06,5.41h-11v21.31h15.54c.75-5.09.61-10.25.18-15.37l5.69,5.4c.21,3.32-.04,6.67-.45,9.97h10.3ZM37.51,26.88v-15.72c-6.77,2.27-10.74,9.33-12.92,15.72h12.92ZM10.97,26.88h7.86l2.64-6.87,3.2-5.53c-5.55,2.82-10.43,7.09-13.71,12.4ZM17.43,32.29H8c-2.75,6.79-3.32,14.14-1.75,21.31h10.3c-.52-4.84-.62-9.73-.17-14.58.21-2.26.66-4.5,1.05-6.72ZM37.51,32.29h-14.41c-1.01,2.59-1.02,5.54-1.48,8.3l-.18,6.99.53,6.02h15.54v-21.31ZM17.43,59.01h-9.26c.52,1.65,1.46,3.38,2.37,4.88,3.29,5.39,8.32,9.95,13.95,12.76.29-.16-.06-.39-.16-.54-.57-.93-1.24-1.81-1.77-2.77-2.46-4.46-4.08-9.35-5.15-14.32ZM37.51,59.01h-14.49c1.08,4.92,2.93,9.87,5.8,14.03,2.08,3.02,5.02,6.07,8.7,6.93v-20.96ZM57.42,59.01h-14.49v20.96c3.69-.79,6.82-4.07,8.87-7.1,2.75-4.06,4.66-9.05,5.62-13.85ZM72.44,59.01h-9.43c-.91,4.8-2.57,9.46-4.8,13.8l-2.27,3.84c7.38-3.62,13.31-10.07,16.5-17.64Z"/>
      <path class="cls-1" d="M68.74.03c10.19-.65,18.32,8.27,16.95,18.35-.97,7.14-7.91,16.35-13.51,20.71-1.38,1.07-2.43,1.68-4.09.61-.83-.54-2.48-2.12-3.25-2.87-6.53-6.35-13.59-16.35-10.34-25.9C56.58,4.81,62.26.45,68.74.03ZM68.56,5.45c-5.51.56-9.86,5.67-9.57,11.22.34,6.57,6.29,13.02,10.75,17.37,5.73-5.4,14.02-14.85,9.37-23.17-2.09-3.74-6.28-5.85-10.54-5.42Z"/>
      <path class="cls-1" d="M68.73,10.85c7.61-1.11,8.47,9.71,1.86,10.59-7.27.97-8.32-9.65-1.86-10.59Z"/>
    </g>
  </g>
</svg>