<?xml version="1.0" encoding="UTF-8"?>
<svg id="Capa_2" data-name="Capa 2" xmlns="http://www.w3.org/2000/svg" viewBox="0 0 46.18 46.1">
  <defs>
    <style>
      .cls-1 {
        fill: #59ce91;
      }
    </style>
  </defs>
  <g id="Capa_1-2" data-name="Capa 1">
    <g>
      <path class="cls-1" d="M21.23.06c20.57-1.38,32.74,22.41,19.28,38.09-10.6,12.35-30.42,9.91-37.92-4.42C-5,19.2,4.92,1.15,21.23.06ZM21.33,3.28C5.72,4.41-2.31,23.26,7.58,35.47c9.7,11.98,28.9,8.88,34.12-5.6,4.96-13.8-5.87-27.65-20.36-26.6Z"/>
      <path class="cls-1" d="M32.17,15.37c1.35,0,2.07,1.46,1.3,2.55l-12.36,12.38c-.66.62-1.53.52-2.21,0-2.1-1.6-4.05-4.41-6.14-6.13-1.09-1.43.17-3.21,1.86-2.57l5.17,5.09.29.08,11.03-11c.28-.25.68-.4,1.06-.4Z"/>
    </g>
  </g>
</svg>